#!OML:ASF E:\motion texture\Top Level 1\Subject 1\Session 1\male.ASF
:FULLY-SPECIFIED
:DEGREES
482
root -12.9039 18.0647 4.14348 1001.21 -88.8891 -1004.1
lowerback 5.58282 -4.00724 -4.2908
upperback -1.35254 -5.59559 1.61935
thorax -3.95523 -2.6593 4.5529
lowerneck -20.4278 -1.01988 -3.76709
upperneck 18.8955 -1.56267 5.31897
head 9.40277 -0.422373 2.24684
rclavicle 2.84759e-014 -5.1684e-015
rhumerus -55.7878 -10.4568 -54.8728
rradius 19.5854
rwrist 13.5899
rhand -7.28663 -11.6714
rfingers 7.12502
rthumb 18.5951 -40.8026
lclavicle 2.84759e-014 -5.1684e-015
lhumerus 4.61075 -24.6363 84.2214
lradius 71.6331
lwrist 5.61546
lhand -13.2533 8.67823
lfingers 7.12502
lthumb 12.849 38.2627
rfemur -78.7653 -9.18691 20.448
rtibia 52.5172
rfoot 905.065 -3.77573
rtoes 21.7924
lfemur 1.68837 -6.74999 -28.3378
ltibia 17.3804
lfoot 1068.76 0.461691
ltoes 5.98308
483
root -13.0332 18.0678 4.12819 1021.47 -88.844 -1024.58
lowerback 5.82917 -4.11495 -4.30167
upperback -1.29929 -5.74754 1.67806
thorax -4.01534 -2.73297 4.64942
lowerneck -20.4402 -1.02525 -3.75674
upperneck 18.8662 -1.57482 5.33423
head 9.3955 -0.425234 2.24843
rclavicle -1.95057e-014 -1.63003e-014
rhumerus -56.6798 -10.6307 -53.715
rradius 19.4133
rwrist 13.7237
rhand -7.19415 -11.5613
rfingers 7.12502
rthumb 18.6841 -40.684
lclavicle -1.95057e-014 -1.63003e-014
lhumerus 6.30286 -24.7181 83.2659
lradius 71.6671
lwrist 5.49536
lhand -13.1103 8.51393
lfingers 7.12502
lthumb 12.9869 38.0897
rfemur -80.7539 -9.08828 20.7982
rtibia 53.0188
rfoot 905.235 -3.68582
rtoes 21.7358
lfemur 2.56294 -6.95842 -28.2764
ltibia 17.1005
lfoot 1068.5 0.41297
ltoes 5.88036
484
root -13.1626 18.0697 4.11366 1038.66 -88.7185 -1041.99
lowerback 6.08897 -4.20929 -4.26085
upperback -1.24062 -5.87809 1.74002
thorax -4.08392 -2.79706 4.72097
lowerneck -20.4515 -1.03849 -3.75577
upperneck 18.825 -1.59675 5.35981
head 9.38456 -0.432158 2.25366
rclavicle 6.28657e-015 -9.93923e-015
rhumerus -57.5167 -10.8084 -52.6008
rradius 19.2139
rwrist 13.9186
rhand -7.07132 -11.4694
rfingers 7.12502
rthumb 18.8022 -40.5807
lclavicle 6.28657e-015 -9.93923e-015
lhumerus 7.92529 -24.7306 82.3863
lradius 71.609
lwrist 5.37815
lhand -13.0137 8.38903
lfingers 7.12502
lthumb 13.08 37.9589
rfemur -82.5178 -8.97849 21.1893
rtibia 53.7255
rfoot 905.449 -3.5744
rtoes 21.6767
lfemur 3.42413 -7.16103 -28.1773
ltibia 16.8629
lfoot 1068.23 0.40234
ltoes 5.71816
485
root -13.292 18.0702 4.0998 1052.05 -88.546 -1055.6
lowerback 6.33669 -4.28953 -4.18163
upperback -1.17667 -5.98593 1.80418
thorax -4.14599 -2.85116 4.77127
lowerneck -20.4667 -1.05828 -3.7614
upperneck 18.7738 -1.62658 5.39247
head 9.37138 -0.44235 2.26124
rclavicle -1.80149e-014 1.98785e-015
rhumerus -58.288 -11.0035 -51.5275
rradius 18.9811
rwrist 14.2023
rhand -6.95138 -11.3729
rfingers 7.12502
rthumb 18.9176 -40.473
lclavicle -1.80149e-014 1.98785e-015
lhumerus 9.46913 -24.6789 81.5868
lradius 71.4749
lwrist 5.26675
lhand -12.9587 8.29157
lfingers 7.12502
lthumb 13.133 37.858
rfemur -84.0691 -8.8541 21.6178
rtibia 54.6157
rfoot 905.69 -3.46023
rtoes 21.5947
lfemur 4.2504 -7.33635 -28.0432
ltibia 16.6674
lfoot 1067.95 0.413211
ltoes 5.51389
486
root -13.421 18.0692 4.08646 1062.18 -88.3531 -1065.92
lowerback 6.55526 -4.35632 -4.07928
upperback -1.1153 -6.07251 1.86818
thorax -4.19895 -2.8956 4.80502
lowerneck -20.4907 -1.0832 -3.77429
upperneck 18.7201 -1.66301 5.43467
head 9.35944 -0.454924 2.27244
rclavicle 3.87382e-014 -1.43125e-014
rhumerus -58.9929 -11.2122 -50.505
rradius 18.7183
rwrist 14.5837
rhand -6.84434 -11.2964
rfingers 7.12502
rthumb 19.0205 -40.3864
lclavicle 3.87382e-014 -1.43125e-014
lhumerus 10.916 -24.5696 80.8722
lradius 71.2857
lwrist 5.17225
lhand -12.94 8.21188
lfingers 7.12502
lthumb 13.151 37.7772
rfemur -85.4268 -8.71598 22.0741
rtibia 55.66
rfoot 905.935 -3.35246
rtoes 21.4353
lfemur 5.01595 -7.4707 -27.8802
ltibia 16.5144
lfoot 1067.65 0.42615
ltoes 5.28085
487
root -13.5496 18.0666 4.07351 1069.67 -88.157 -1073.55
lowerback 6.73847 -4.40968 -3.9743
upperback -1.06678 -6.13939 1.93049
thorax -4.24804 -2.93026 4.83184
lowerneck -20.5198 -1.11241 -3.79564
upperneck 18.6692 -1.70448 5.48448
head 9.34982 -0.469536 2.28706
rclavicle 3.70236e-015 1.31198e-014
rhumerus -59.6348 -11.4284 -49.5374
rradius 18.4301
rwrist 15.0584
rhand -6.74676 -11.2553
rfingers 7.12502
rthumb 19.1144 -40.336
lclavicle 3.70236e-015 1.31198e-014
lhumerus 12.2446 -24.4106 80.2538
lradius 71.0614
lwrist 5.09797
lhand -12.9384 8.14592
lfingers 7.12502
lthumb 13.1526 37.7111
rfemur -86.6071 -8.56901 22.5454
rtibia 56.8388
rfoot 906.174 -3.24789
rtoes 21.2047
lfemur 5.70279 -7.55759 -27.7012
ltibia 16.4021
lfoot 1067.35 0.425538
ltoes 5.03368
488
root -13.6774 18.0625 4.06082 1075.09 -87.971 -1079.04
lowerback 6.87458 -4.45175 -3.87994
upperback -1.03563 -6.19044 1.98636
thorax -4.29016 -2.95677 4.85335
lowerneck -20.5548 -1.14366 -3.82071
upperneck 18.6266 -1.74928 5.54027
head 9.34446 -0.485242 2.30405
rclavicle 3.05631e-015 -1.11319e-014
rhumerus -60.2143 -11.6561 -48.6262
rradius 18.1176
rwrist 15.6218
rhand -6.66433 -11.2254
rfingers 7.12502
rthumb 19.1936 -40.2983
lclavicle 3.05631e-015 -1.11319e-014
lhumerus 13.4413 -24.2094 79.729
lradius 70.8184
lwrist 5.03266
lhand -12.9469 8.0864
lfingers 7.12502
lthumb 13.1444 37.6521
rfemur -87.6242 -8.41806 23.0193
rtibia 58.1311
rfoot 906.406 -3.12686
rtoes 20.9054
lfemur 6.29755 -7.59465 -27.5159
ltibia 16.3268
lfoot 1067.04 0.396615
ltoes 4.78858
489
root -13.8043 18.0568 4.04839 1078.79 -87.7991 -1082.76
lowerback 6.95633 -4.4856 -3.81192
upperback -1.01734 -6.231 2.03446
thorax -4.31441 -2.97788 4.87607
lowerneck -20.5958 -1.17613 -3.84428
upperneck 18.5839 -1.79497 5.59207
head 9.34019 -0.501595 2.31929
rclavicle 4.90998e-014 -8.74653e-015
rhumerus -60.7194 -11.9023 -47.7735
rradius 17.783
rwrist 16.264
rhand -6.59421 -11.1924
rfingers 7.12502
rthumb 19.2611 -40.2586
lclavicle 4.90998e-014 -8.74653e-015
lhumerus 14.5093 -23.9675 79.294
lradius 70.5708
lwrist 4.96225
lhand -12.9469 8.02285
lfingers 7.12502
lthumb 13.1444 37.5885
rfemur -88.4825 -8.27634 23.4805
rtibia 59.5217
rfoot 906.638 -2.96315
rtoes 20.5445
lfemur 6.80164 -7.58937 -27.3399
ltibia 16.2824
lfoot 1066.74 0.331555
ltoes 4.57386
490
root -13.9302 18.0497 4.03621 1081.08 -87.6459 -1085.01
lowerback 7.00095 -4.51165 -3.7776
upperback -1.01936 -6.26312 2.07299
thorax -4.33749 -2.99366 4.90444
lowerneck -20.6382 -1.20919 -3.86983
upperneck 18.5458 -1.84096 5.64346
head 9.33783 -0.518262 2.33473
rclavicle 4.32854e-014 -1.86858e-014
rhumerus -61.16 -12.1628 -46.9753
rradius 17.4345
rwrist 16.9714
rhand -6.52316 -11.1402
rfingers 7.12502
rthumb 19.3294 -40.1995
lclavicle 4.32854e-014 -1.86858e-014
lhumerus 15.4343 -23.6932 78.9511
lradius 70.3279
lwrist 4.87105
lhand -12.925 7.95166
lfingers 7.12502
lthumb 13.1655 37.516
rfemur -89.1824 -8.15226 23.9201
rtibia 60.9944
rfoot 906.882 -2.7317
rtoes 20.1815
lfemur 7.23357 -7.55903 -27.1879
ltibia 16.2446
lfoot 1066.45 0.237514
ltoes 4.38953
